<?xml version="1.0" standalone="no"?>
<!DOCTYPE svg PUBLIC "-//W3C//DTD SVG 20010904//EN" "http://www.w3.org/TR/2001/REC-SVG-20010904/DTD/svg10.dtd">
<!-- Created using Krita: https://krita.org -->
<svg xmlns="http://www.w3.org/2000/svg" 
    xmlns:xlink="http://www.w3.org/1999/xlink"
    xmlns:krita="http://krita.org/namespaces/svg/krita"
    xmlns:sodipodi="http://sodipodi.sourceforge.net/DTD/sodipodi-0.dtd"
    width="9.36pt"
    height="4.824pt"
    viewBox="0 0 9.36 4.824">
<defs/>
<g id="group0" transform="matrix(0.036 0 0 0.036 0 0)" fill="none">
  <path id="svg_4" transform="translate(44.9999999999999, 316.876543209877)" fill="#ffaaaa" stroke="#ffaaaa" stroke-width="2.928799" stroke-linecap="butt" stroke-linejoin="miter" stroke-miterlimit="2" d="M0 73.1235C109 170.123 179 94.1235 179 94.1235C179 94.1235 134 53.1235 134 53.1235C134 53.1235 189 22.1235 189 22.1235C189 22.1235 165 -5.87654 125 1.12346C85 8.12346 0 73.1235 0 73.1235Z" sodipodi:nodetypes="cccccc"/>
  <path id="svg_6" transform="translate(52, 177.726806640625)" fill="#ffaaaa" stroke="#ffaaaa" stroke-width="2.928799" stroke-linecap="butt" stroke-linejoin="miter" stroke-miterlimit="2" d="M0 7.27319C101 164.273 235 108.273 202 42.2732C169 -23.7268 0 7.27319 0 7.27319Z" sodipodi:nodetypes="ccc"/>
  <path id="svg_7" transform="translate(212, 52)" fill="#ffaaaa" stroke="#ffaaaa" stroke-width="2.928799" stroke-linecap="butt" stroke-linejoin="miter" stroke-miterlimit="2" d="M0 12C73 153 199 92 219 53C239 14 188 0 158 0C128 0 0 12 0 12Z" sodipodi:nodetypes="cccc"/>
  <path id="svg_8" transform="translate(308.39746223921, 238)" fill="#ffaaaa" stroke="#ffaaaa" stroke-width="2.928799" stroke-linecap="butt" stroke-linejoin="miter" stroke-miterlimit="2" d="M18.6025 0C-37.3975 118 50.6025 142 53.6025 150C56.6025 158 70.6025 116 72.6025 99C74.6025 82 80.6025 173 80.6025 173C80.6025 173 158.603 134 117.603 77C76.6025 20 18.6025 0 18.6025 0Z" sodipodi:nodetypes="cccccc"/>
 </g>
</svg>
